<?xml version="1.0" encoding="UTF-8"?>
<svg version="1.1" xmlns="http://www.w3.org/2000/svg" width="256" height="256">
<path d="M0 0 C84.48 0 168.96 0 256 0 C256 84.48 256 168.96 256 256 C171.52 256 87.04 256 0 256 C0 171.52 0 87.04 0 0 Z " fill="#1A181E" transform="translate(0,0)"/>
<path d="M0 0 C3.44344561 0.18613219 6.87579117 0.41167154 10.3125 0.69921875 C12.43313773 0.8721945 14.55987552 1.00406886 16.6875 1.01953125 C19.35218084 1.21845708 20.75624868 1.51903492 23 3 C30.94290508 14.37809494 33.57606238 27.46497614 33.5 41.125 C33.49500488 42.30771484 33.49000977 43.49042969 33.48486328 44.70898438 C33.05951516 66.21693191 24.01723652 83.84005232 8.625 98.73828125 C-10.18472725 114.94487661 -31.70960494 118.61309522 -56 117 C-61.19435514 116.22264063 -66.02888291 114.67271372 -71 113 C-72.66081966 112.63865951 -74.326034 112.29449402 -76 112 C-75.01 112.66 -74.02 113.32 -73 114 C-72.34 114.66 -71.68 115.32 -71 116 C-75.62 116 -80.24 116 -85 116 C-82.5342225 111.06844499 -79.20636389 107.71237119 -75.45703125 103.7109375 C-73.55038176 101.60725746 -71.9665512 99.5798997 -70.375 97.25 C-69.59125 96.5075 -68.8075 95.765 -68 95 C-66.10612415 95.18327831 -64.21200985 95.3829486 -62.33203125 95.67626953 C-50.11793026 97.37181998 -37.38452012 96.87679584 -26 92 C-24.68515625 91.45666016 -24.68515625 91.45666016 -23.34375 90.90234375 C-7.71271523 83.78636341 1.11338541 71.58511581 9 57 C10.82891518 62.48674553 7.29124744 67.93327242 5 73 C-0.79879357 83.58768489 -8.88363218 91.55288854 -19 98 C-3.33338995 90.54548149 7.14040841 79.42500046 13.4375 63.1875 C18.46205458 47.78181725 16.93762683 30.65207561 10.5 15.9375 C8.12239632 11.28135946 5.1380967 7.16568504 2 3 C1.01 1.515 1.01 1.515 0 0 Z " fill="#F49B18" transform="translate(172,84)"/>
<path d="M0 0 C2.62525577 1.37592614 2.62525577 1.37592614 4.8359375 1.2421875 C5.1659375 0.5821875 5.4959375 -0.0778125 5.8359375 -0.7578125 C4.1859375 -1.0878125 2.5359375 -1.4178125 0.8359375 -1.7578125 C0.8359375 -2.0878125 0.8359375 -2.4178125 0.8359375 -2.7578125 C5.1259375 -2.7578125 9.4159375 -2.7578125 13.8359375 -2.7578125 C10.47338283 1.89803243 6.97685713 6.41384382 3.2734375 10.8046875 C2.55027344 11.67222656 1.82710938 12.53976563 1.08203125 13.43359375 C-1.1640625 15.2421875 -1.1640625 15.2421875 -3.6015625 15.14453125 C-4.4471875 14.84675781 -5.2928125 14.54898438 -6.1640625 14.2421875 C-7.04964844 13.9328125 -7.93523437 13.6234375 -8.84765625 13.3046875 C-10.68132721 12.59722863 -12.51466179 11.8888973 -14.34765625 11.1796875 C-28.71666173 6.3966621 -45.94398329 8.22112869 -59.3046875 14.78515625 C-74.52162328 23.13917753 -84.92333921 35.58417418 -90.1640625 52.2421875 C-91.52898373 56.96696317 -91.34818484 61.60808819 -91.3515625 66.4921875 C-91.36380859 67.40871094 -91.37605469 68.32523437 -91.38867188 69.26953125 C-91.42600682 86.71739778 -83.27545098 99.39464457 -72.1640625 112.2421875 C-75.88545315 112.01444615 -79.60299234 111.77089649 -83.3203125 111.484375 C-86.94466809 111.18198863 -86.94466809 111.18198863 -89.6953125 111.375 C-91.6640625 111.4296875 -91.6640625 111.4296875 -95.1640625 110.2421875 C-107.92734101 95.54426466 -108.47942804 74.703047 -107.45068359 56.36962891 C-106.84906224 49.80508931 -105.04177171 44.18798871 -102.1640625 38.2421875 C-101.66777344 37.13359375 -101.17148438 36.025 -100.66015625 34.8828125 C-96.48367022 26.30843636 -90.87406077 19.87393506 -84.1640625 13.2421875 C-83.50664063 12.57445313 -82.84921875 11.90671875 -82.171875 11.21875 C-60.39029356 -9.44103325 -26.48002808 -12.2170549 0 0 Z " fill="#F9A718" transform="translate(161.1640625,57.7578125)"/>
<path d="M0 0 C5.23496279 0.39793684 9.06587442 1.74892973 13.69140625 4.17578125 C14.31069504 4.49732681 14.92998383 4.81887238 15.56803894 5.15016174 C17.57172179 6.19408093 19.56712029 7.25280918 21.5625 8.3125 C22.94592839 9.03796034 24.32972069 9.76272712 25.71386719 10.48681641 C56.28104503 26.52069669 56.28104503 26.52069669 63 31 C63.1875 33.625 63.1875 33.625 63 36 C50.93162289 42.98464944 38.78947318 49.8048777 26.49902344 56.3918457 C22.12808471 58.73955984 17.77720612 61.09752626 13.51171875 63.6328125 C12.86323975 64.01727539 12.21476074 64.40173828 11.54663086 64.79785156 C9.89396463 65.78868773 8.2511623 66.79592764 6.609375 67.8046875 C4 69 4 69 1.703125 68.7578125 C0 68 0 68 -1 67 C-1.09939626 64.94987154 -1.12799553 62.89628608 -1.12939453 60.84375 C-1.13254669 59.52568359 -1.13569885 58.20761719 -1.13894653 56.84960938 C-1.13715675 55.39973925 -1.1351058 53.94986942 -1.1328125 52.5 C-1.13348557 51.02408838 -1.13445563 49.54817687 -1.13571167 48.07226562 C-1.13718848 44.97524971 -1.13503464 41.87826258 -1.13037109 38.78125 C-1.1246738 34.80291451 -1.1279529 30.82464648 -1.13394356 26.84631348 C-1.13754963 23.79752083 -1.13641037 20.74874429 -1.13381577 17.69995117 C-1.13314662 16.23266594 -1.13397447 14.76537926 -1.13629532 13.2980957 C-1.13882257 11.25081407 -1.1342906 9.20352734 -1.12939453 7.15625 C-1.12859894 5.98900391 -1.12780334 4.82175781 -1.12698364 3.61914062 C-1 1 -1 1 0 0 Z " fill="#F7F6F5" transform="translate(109,91)"/>
<path d="M0 0 C1.82891518 5.48674553 -1.70875256 10.93327242 -4 16 C-13.21589957 32.82678292 -28.15435589 43.09421688 -46.1875 48.67724609 C-50.75345729 49.96244077 -55.3538308 51.04192076 -60 52 C-60.9384375 52.19722656 -61.876875 52.39445312 -62.84375 52.59765625 C-67.19749013 53.15265035 -71.49156913 53.10541009 -75.875 53.0625 C-76.75414063 53.05798828 -77.63328125 53.05347656 -78.5390625 53.04882812 C-80.69273803 53.03712337 -82.84637817 53.01919069 -85 53 C-85 53.99 -85 54.98 -85 56 C-83.35 56.66 -81.7 57.32 -80 58 C-80 58.33 -80 58.66 -80 59 C-84.62 59 -89.24 59 -94 59 C-91.5342225 54.06844499 -88.20636389 50.71237119 -84.45703125 46.7109375 C-82.55038176 44.60725746 -80.9665512 42.5798997 -79.375 40.25 C-78.59125 39.5075 -77.8075 38.765 -77 38 C-75.10612415 38.18327831 -73.21200985 38.3829486 -71.33203125 38.67626953 C-59.11793026 40.37181998 -46.38452012 39.87679584 -35 35 C-33.68515625 34.45666016 -33.68515625 34.45666016 -32.34375 33.90234375 C-16.71271523 26.78636341 -7.88661459 14.58511581 0 0 Z " fill="#F4B923" transform="translate(181,141)"/>
<path d="M0 0 C-2.8062587 1.87083913 -5.51306848 3.2016669 -8.5625 4.625 C-23.99753285 12.35182585 -32.72600803 24.02806315 -38.74609375 39.9765625 C-41.90371551 50.21161234 -40.10528446 61.73673825 -38 72 C-43.62728542 66.37271458 -44.00241251 56.3370067 -44.25 48.8125 C-44.04922473 35.45181829 -38.96634187 24.05226221 -29.9375 14.25 C-22.31003749 7.05502248 -10.77612782 -0.63388987 0 0 Z " fill="#DF7810" transform="translate(119,73)"/>
<path d="M0 0 C2.5625 1.5625 2.5625 1.5625 4 4 C4.07673554 8.29719036 3.68567568 10.25718468 0.75 13.4375 C-2.31174854 15.17712985 -3.56624271 15.77259539 -7 15 C-9.875 12.9375 -9.875 12.9375 -12 10 C-12 6.48044581 -11.63108355 4.15079941 -9.9375 1.0625 C-6.73442651 -0.69402417 -3.50357841 -0.61910623 0 0 Z " fill="#F32724" transform="translate(197,62)"/>
<path d="M0 0 C0.99 0.33 1.98 0.66 3 1 C3.36546942 5.2638099 2.58333652 7.58630532 0 11 C-2.83423931 13.22690231 -4.06857668 12.99314233 -7.75 12.625 C-8.8225 12.41875 -9.895 12.2125 -11 12 C-11 11.67 -11 11.34 -11 11 C-9.3603125 10.62875 -9.3603125 10.62875 -7.6875 10.25 C-3.87478436 8.95755402 -2.79352034 8.48740066 -1 5 C-0.28566879 2.35065178 -0.28566879 2.35065178 0 0 Z " fill="#39161C" transform="translate(201,66)"/>
<path d="M0 0 C0.89203125 0.00902344 1.7840625 0.01804688 2.703125 0.02734375 C3.37859375 0.03894531 4.0540625 0.05054688 4.75 0.0625 C5.08 2.0425 5.41 4.0225 5.75 6.0625 C5.255 5.5675 4.76 5.0725 4.25 4.5625 C0.49351164 2.30860698 -1.89579381 2.57869931 -6.25 3.0625 C-8.24033641 4.71623496 -8.24033641 4.71623496 -9.25 7.0625 C-9.8378125 8.17625 -9.8378125 8.17625 -10.4375 9.3125 C-10.705625 9.89 -10.97375 10.4675 -11.25 11.0625 C-11.5 4.4375 -11.5 4.4375 -9.25 1.0625 C-6.19517539 -0.09966154 -3.24027838 -0.04263524 0 0 Z " fill="#48181D" transform="translate(195.25,59.9375)"/>
<path d="M0 0 C-2.90866929 1.93911286 -5.80640948 3.45187119 -8.9375 5 C-9.97777344 5.515625 -11.01804687 6.03125 -12.08984375 6.5625 C-13.05019531 7.036875 -14.01054688 7.51125 -15 8 C-16.33377107 8.66579048 -17.66730955 9.33204912 -19 10 C-18.05998971 6.5686741 -17.46346618 5.2772582 -14.35546875 3.41796875 C-13.31003906 3.01191406 -12.26460938 2.60585937 -11.1875 2.1875 C-9.63095703 1.55908203 -9.63095703 1.55908203 -8.04296875 0.91796875 C-5.15772846 0.04758176 -2.98633073 -0.19320069 0 0 Z " fill="#C66B11" transform="translate(119,73)"/>
<path d="M0 0 C1.15957207 3.47871621 0.77456651 4.34219645 -0.4375 7.6875 C-0.72496094 8.49574219 -1.01242188 9.30398437 -1.30859375 10.13671875 C-1.53675781 10.75160156 -1.76492187 11.36648437 -2 12 C-2.99 11.67 -3.98 11.34 -5 11 C-3.55049545 7.2089881 -1.84827434 3.6125362 0 0 Z " fill="#DCAC23" transform="translate(181,141)"/>
<path d="M0 0 C2.625 -0.1875 2.625 -0.1875 5 0 C4.21625 0.9075 3.4325 1.815 2.625 2.75 C0.69947504 5.05190236 -0.82205741 7.21577207 -2 10 C-2.25 3.375 -2.25 3.375 0 0 Z " fill="#37181E" transform="translate(186,61)"/>
<path d="M0 0 C0.99 0.33 1.98 0.66 3 1 C3.66 4.96 4.32 8.92 5 13 C2.53698577 10.53698577 2.23233479 8.72639964 1.375 5.375 C1.11460938 4.37210938 0.85421875 3.36921875 0.5859375 2.3359375 C0.39257812 1.56507813 0.19921875 0.79421875 0 0 Z " fill="#C36913" transform="translate(76,132)"/>
</svg>
